<svg xmlns="http://www.w3.org/2000/svg" width="64" height="64" viewBox="0 0 64 64">
<path d="M0 0 C3.89446734 2.19548657 6.9151634 4.79196905 8.265625 9.19921875 C9.30026111 14.38197928 9.54231328 19.36841386 7 24.125 C4.34550926 27.78389264 1.73292193 30.28978904 -2.3125 32.3125 C-8.4046255 33.05292756 -13.7543364 33.3439177 -18.875 29.625 C-22.56408707 26.55472753 -24.96600737 23.25984233 -25.81640625 18.48046875 C-25.94393274 11.99362133 -25.41056639 7.80313504 -21.01171875 2.87109375 C-14.89362834 -2.74067194 -7.43073713 -3.40402483 0 0 Z " fill="#FBFBFB" transform="translate(40.3125,11.6875)"/>
<path d="M0 0 C1.27617187 0.00483398 1.27617187 0.00483398 2.578125 0.00976562 C3.46757812 0.01814453 4.35703125 0.02652344 5.2734375 0.03515625 C6.170625 0.03966797 7.0678125 0.04417969 7.9921875 0.04882812 C10.21100398 0.06063034 12.42968768 0.0770947 14.6484375 0.09765625 C14.6484375 1.41765625 14.6484375 2.73765625 14.6484375 4.09765625 C8.0484375 4.09765625 1.4484375 4.09765625 -5.3515625 4.09765625 C-5.6815625 3.10765625 -6.0115625 2.11765625 -6.3515625 1.09765625 C-4.00303722 -0.07660639 -2.61382185 -0.01742548 0 0 Z " fill="#F5F5F5" transform="translate(27.3515625,49.90234375)"/>
</svg>
