<svg xmlns="http://www.w3.org/2000/svg" viewBox="95 355 1090 125"><path fill="#00C896" d="M413.942 364.408L477.351 364.42C498.964 364.401 533.749 360.446 540.439 389.658C545.475 411.644 537.959 433.599 513.727 439.336C507.705 440.571 492.146 440.163 485.498 440.153L442.035 440.195L442.16 468.369C432.931 468.439 423.54 468.319 414.297 468.283C414.358 433.658 414.24 399.032 413.942 364.408Z"/><path fill="#00C896" d="M441.925 388.774L483.331 388.704C489.978 388.695 497.88 388.331 504.436 388.962C516.459 390.118 518.881 402.747 512.801 411.781C506.461 417.329 489.891 415.611 481.43 415.603L441.97 415.733L441.925 388.774Z"/><path fill="#00C896" d="M579.109 364.539C590.558 363.955 603.876 364.465 615.608 364.366C626.447 365.144 638.861 362.994 649.512 365.231C668.575 369.235 675.211 380.062 676.841 397.786L649.54 397.721C649.095 395.723 648.661 392.863 647.1 391.465C644.353 389.006 638.771 388.853 635.15 388.851C619.253 388.839 603.498 388.648 587.582 388.901C581.892 388.992 576.135 390.661 576.722 397.877C578.396 407.143 591.296 404.079 597.464 404.557C617.223 406.087 650.021 399.423 666.492 411.511C672.453 415.851 676.388 422.432 677.39 429.737C680.323 451.348 665.607 465.301 645.146 468.072C644.786 468.088 644.426 468.102 644.065 468.113C629.327 468.483 614.322 467.949 599.55 468.191C592.424 468.308 582.624 468.672 575.915 467.016C569.684 465.461 563.965 462.314 559.317 457.882C551.908 450.781 549.82 442.833 549.606 432.913C558.417 432.668 567.233 432.629 576.047 432.796C577.612 438.786 578.963 442.629 586.106 442.877C603.664 443.309 625.054 443.717 642.272 442.871C650.125 442.485 659.453 426.657 635.937 426.307C615.876 426.008 588.434 428.714 569.415 424.052C545.633 418.223 542.922 381.259 564.626 369.79C570.27 366.655 572.535 365.856 579.109 364.539Z"/><path fill="#00C896" d="M1059.99 364.393L1177.22 364.488L1177.31 388.925L1086.92 388.946L1086.94 404.41L1177.08 404.07L1177.29 426.137L1137.63 425.875C1120.74 425.97 1103.84 425.951 1086.95 425.818L1086.97 443.225L1177.03 443.156L1177.1 468.233L1060.25 468.287C1059.26 435.569 1060.1 397.469 1059.99 364.393Z"/><path fill="#00C896" d="M131.599 364.547C142.663 364.022 154.179 364.437 165.305 364.406C193.793 364.327 226.458 359.765 228.948 398.007C225.234 398.062 203.403 399.265 201.499 396.673C199.88 393.31 198.959 388.82 193.173 388.911C174.436 389.207 151.097 387.755 132.848 390.094C129.686 390.499 125.062 402.121 134.898 403.958C161.207 408.87 220.612 391.354 229.072 427.793C230.89 435.876 229.439 444.35 225.037 451.369C219.368 460.307 210.069 465.31 199.981 467.592L199.449 467.615C186.921 468.119 172.671 467.642 160.059 467.822C152.758 467.926 135.216 468.215 128.743 466.783C122.517 465.423 116.769 462.42 112.097 458.086C104.195 450.642 102.464 442.813 102.19 432.589C105.188 432.557 127.761 431.702 129.213 433.658C131.677 436.977 130.735 443.004 138.964 443.154C157.334 443.487 175.699 443.141 194.068 443.008C203.565 442.169 206.899 427.39 195.431 426.262C193.434 425.778 191.593 425.955 189.572 425.787C167.463 423.949 133.906 431.414 114.504 420.567C97.3725 410.989 98.1156 382.264 113.612 371.932C120.141 367.58 123.701 366.098 131.599 364.547Z"/><path fill="#00C896" d="M827.425 364.467L868.096 364.489C886.516 397.875 903.103 434.954 922.181 467.993L891.913 467.853C888.246 460.541 884.668 453.279 880.655 446.144L870.312 446.254L815.455 446.344L804.196 467.664L774.941 467.611C776.8 463.197 779.54 457.616 781.873 453.392C797.901 424.383 811.502 393.422 827.425 364.467Z"/><path fill="#00C896" d="M847.64 384.333C850.639 387.561 864.801 415.808 867.712 421.364L849.062 421.356L828.288 421.341C833.989 409.999 841.382 395.18 847.64 384.333Z"/><path fill="#00C896" d="M336.87 364.466L363.849 364.492C363.85 374.345 364.45 466.349 363.689 467.405L361.406 467.647L336.904 467.584L336.849 426.336L262.582 426.266L262.605 467.67L235.495 467.653L235.617 364.484L262.484 364.498L262.492 401.51C287.308 401.366 312.125 401.466 336.939 401.811C336.768 389.469 336.89 376.832 336.87 364.466Z"/><path fill="#00C896" d="M1007.47 364.434L1046.43 364.431C1035.61 375.284 1015.52 393.44 1003.66 403.096C1015.06 415.583 1027.14 431.836 1037.64 445.39C1043.41 453.08 1049.98 460.544 1055.89 468.388L1022.3 468.545C1010.19 455.201 995.035 435.315 983.394 420.909C976.049 428.045 961.34 440.55 953.195 446.514L953.406 468.335L926.329 468.335L926.601 364.447L953.62 364.461L953.721 411.605C971.757 396.195 989.501 380.028 1007.47 364.434Z"/><path fill="#00C896" d="M681.26 364.443L810.694 364.449L810.701 389.982L760.051 389.941L760.049 418.5L760.131 468.62C751.115 468.656 742.099 468.594 733.084 468.434L733.029 389.507L681.276 389.589L681.26 364.443Z"/><path fill="#00C896" d="M376.709 364.471L404.372 364.504L404.456 467.581L376.854 467.553L376.709 364.471Z"/></svg>
