<?xml version="1.0" encoding="utf-8" ?><svg xmlns="http://www.w3.org/2000/svg" xmlns:xlink="http://www.w3.org/1999/xlink" width="1024" height="1024" viewBox="0 0 1024 1024"><path fill="#00C896" d="M412.325 675.385L341.429 745.852L319.566 767.758C312.776 774.609 306.135 783.705 295.776 784.42C281.382 785.414 270.237 774.397 269.761 760.141C269.428 750.17 269.553 740.177 269.55 730.194L269.54 677.461L269.53 515.437L269.529 415.848C269.528 400.552 269.408 385.122 269.773 369.808C270.329 346.454 286.35 334.254 301.775 318.884L334.483 286.174C347.566 273.15 362.939 255.443 377.672 245.048C400.565 228.895 436.937 237.858 442.606 267.609C444.645 278.311 444.113 289.04 444.162 300.027C444.155 314.136 444.289 328.245 444.562 342.352C444.869 344.093 444.995 345.656 445.347 347.395C476.973 317.167 507.725 284.636 539.1 253.992C549.279 244.05 559.383 237.827 574.151 237.951C584.137 237.997 593.69 242.033 600.684 249.161C614.44 263.367 612.044 283.472 612.007 301.727C611.993 317.323 611.865 332.919 611.621 348.514C604.987 350.743 598.913 354.38 593.814 359.174C587.07 365.507 582.563 373.857 580.968 382.97C579.555 391.256 580.001 406.427 580.005 415.525L580.027 467.173L579.985 597.152C579.96 622.93 580.311 649.92 579.546 675.603C586.11 671.33 593.812 668.447 599.44 662.697C614.198 647.618 611.554 623.281 611.591 603.812L611.672 546.491L611.734 348.668C619.564 341.71 628.374 332.361 635.961 324.799L689.643 270.708C696.602 263.758 703.818 256.726 710.623 249.645C720.716 239.141 734.478 233.785 746.491 245.749C749.917 249.189 752.307 253.524 753.387 258.258C755.389 266.732 754.476 282.449 754.535 291.504C754.785 329.637 754.976 367.793 754.961 405.923L754.971 532.153C755.165 562.259 755.044 592.365 754.609 622.467C754.31 639.099 756.467 660.658 748.934 675.704C743.181 687.198 729.091 697.641 720.074 707.149C703.793 724.318 686.186 740.493 670.054 757.842C655.964 772.693 643.491 786.42 621.603 786.826C610.585 787.03 599.628 782.959 591.749 775.124C586.693 770.162 583.065 763.931 581.246 757.085C578.654 747.18 579.431 730.093 579.44 719.117L579.499 675.416L508.901 745.734C505.007 749.614 501.147 753.553 497.267 757.447C483.983 770.779 472.053 785.943 451.555 786.47C441.252 786.65 431.295 782.756 423.848 775.633C408.935 761.405 412.674 745.685 412.378 726.843C412.11 709.717 412.644 692.519 412.325 675.385Z"/><path d="M444.25 347.623L445.025 347.917C444.062 370.325 444.794 397.204 444.788 420.023L444.755 561.266L444.689 607.089C444.657 628.787 447.046 653.356 426.634 667.437C422.072 670.584 417.075 672.268 412.021 674.45C411.287 657.961 411.632 637.606 411.59 620.875L411.677 512.613L411.627 439.336C411.625 432.801 411.645 425.835 411.628 419.329C411.529 381.573 409.5 367.258 444.25 347.623Z"/><path fill="#283C49" d="M444.562 342.352C444.869 344.093 444.995 345.656 445.347 347.395L445.025 347.917L444.25 347.623C444.675 346.051 444.509 344.069 444.562 342.352Z"/></svg>